<svg viewBox="0 0 32 32" xmlns="http://www.w3.org/2000/svg"><path d="M32 27.556A4.443 4.443 0 0 1 27.555 32H4.444A4.444 4.444 0 0 1 0 27.556V4.444A4.444 4.444 0 0 1 4.444 0h23.111A4.443 4.443 0 0 1 32 4.444v23.112Z" fill="#2f81c0"/><path d="M16 22.215a6.23 6.23 0 0 1-6.222-6.222A6.23 6.23 0 0 1 16 9.771a6.23 6.23 0 0 1 6.222 6.222A6.23 6.23 0 0 1 16 22.215Zm0-10.666a4.449 4.449 0 0 0-4.444 4.444A4.449 4.449 0 0 0 16 20.437a4.45 4.45 0 0 0 4.445-4.444A4.45 4.45 0 0 0 16 11.549Zm6.667-.882a1.333 1.333 0 1 0 0-2.667 1.333 1.333 0 0 0 0 2.667Z" fill="#fff"/><path d="M21.333 27.549H10.667a6.23 6.23 0 0 1-6.222-6.223V10.66a6.23 6.23 0 0 1 6.222-6.222h10.666a6.23 6.23 0 0 1 6.223 6.222v10.666a6.23 6.23 0 0 1-6.223 6.223ZM10.667 6.215a4.45 4.45 0 0 0-4.445 4.445v10.666a4.45 4.45 0 0 0 4.445 4.445h10.666a4.45 4.45 0 0 0 4.445-4.445V10.66a4.45 4.45 0 0 0-4.445-4.445H10.667Z" fill="#fff"/></svg>
