<svg viewBox="0 0 32 32" xmlns="http://www.w3.org/2000/svg"><path d="M32 27.556A4.444 4.444 0 0 1 27.555 32H4.445A4.444 4.444 0 0 1 0 27.556V4.444A4.444 4.444 0 0 1 4.444 0h23.111A4.444 4.444 0 0 1 32 4.444v23.112Z" fill="#2F81C0"/><path d="M5.333 11.556h4.445v15.11H5.333v-15.11Zm2.21-1.778h-.026c-1.326 0-2.184-.989-2.184-2.223 0-1.262.885-2.222 2.235-2.222 1.352 0 2.185.96 2.21 2.222 0 1.233-.858 2.223-2.236 2.223Zm19.124 16.889h-4.445v-8.088c0-1.954-1.089-3.288-2.837-3.288-1.334 0-2.056.9-2.406 1.77-.128.31-.09 1.17-.09 1.606v8h-4.445V11.555h4.445v2.326c.64-.992 1.644-2.325 4.211-2.325 3.18 0 5.566 2 5.566 6.465v8.646Z" fill="#fff"/></svg>