<svg viewBox="0 0 24 24" fill="none" xmlns="http://www.w3.org/2000/svg"><path d="M5.5 23.551h13a2.05 2.05 0 0 0 2.05-2.05V6.001a.54.54 0 0 0-.214-.426l-4.91-4.91A.542.542 0 0 0 15 .451H5.5a2.05 2.05 0 0 0-2.05 2.05v19a2.05 2.05 0 0 0 2.05 2.05Zm13.189-18.1H15.55V2.312l3.139 3.139ZM15 6.551h4.45v14.95a.95.95 0 0 1-.95.95h-13a.95.95 0 0 1-.95-.95v-19a.95.95 0 0 1 .95-.95h8.95v4.45c0 .304.246.55.55.55Zm-7.5 13h9a.55.55 0 1 0 0-1.1h-9a.55.55 0 1 0 0 1.1Zm0-4h9a.55.55 0 1 0 0-1.1h-9a.55.55 0 1 0 0 1.1Zm0-4h9a.55.55 0 1 0 0-1.1h-9a.55.55 0 1 0 0 1.1Z" fill="#0C0D0E" stroke="#0C0D0E" stroke-width=".1"/></svg>