<svg width="18" height="24" viewBox="0 0 18 24" fill="none" xmlns="http://www.w3.org/2000/svg">
<path d="M2.5 23.551H15.5C16.6321 23.551 17.55 22.6331 17.55 21.501V6.01398V6.01396V6.01394V6.01392V6.01391V6.01389V6.01387V6.01386V6.01384V6.01382V6.01381V6.01379V6.01377V6.01376V6.01374V6.01372V6.01371V6.01369V6.01368V6.01366V6.01364V6.01363V6.01361V6.0136V6.01358V6.01357V6.01355V6.01354V6.01352V6.01351V6.01349V6.01347V6.01346V6.01345V6.01343V6.01342V6.0134V6.01339V6.01337V6.01336V6.01334V6.01333V6.01331V6.0133V6.01329V6.01327V6.01325V6.01324V6.01322V6.0132V6.01318V6.01316V6.01315V6.01313V6.01311V6.01309V6.01307V6.01305V6.01304V6.01302V6.013V6.01298V6.01297V6.01295V6.01293V6.01291V6.01289V6.01288V6.01286V6.01284V6.01282V6.01281V6.01279V6.01277V6.01275V6.01274V6.01272V6.0127V6.01268V6.01266V6.01265V6.01263V6.01261V6.01259V6.01258V6.01256V6.01254V6.01252V6.01251V6.01249V6.01247V6.01245V6.01243V6.01242V6.0124V6.01238V6.01236V6.01234V6.01233V6.01231V6.01229V6.01227V6.01225V6.01223V6.01222V6.0122V6.01219V6.01217V6.01215V6.01214V6.01212V6.01211V6.0121V6.01208V6.01207V6.01205V6.01204V6.01202V6.01201V6.01199V6.01198V6.01196V6.01195V6.01193V6.01192V6.0119V6.01189V6.01187V6.01186V6.01184V6.01182V6.01181V6.01179V6.01178V6.01176V6.01175V6.01173V6.01171V6.0117V6.01168V6.01166V6.01165V6.01163V6.01161V6.0116V6.01158V6.01156V6.01155V6.01153V6.01151V6.01149V6.01148V6.00098C17.55 5.82441 17.4621 5.67495 17.3357 5.57548L12.4255 0.665228C12.3261 0.539453 12.1767 0.450977 12 0.450977H11.99H11.99H11.99H11.99H11.99H11.9899H11.9899H11.9899H11.9899H11.9899H11.9899H11.9899H11.9899H11.9898H11.9898H11.9898H11.9898H11.9898H11.9898H11.9898H11.9898H11.9897H11.9897H11.9897H11.9897H11.9897H11.9897H11.9897H11.9897H11.9896H11.9896H11.9896H11.9896H11.9896H11.9896H11.9896H11.9896H11.9895H11.9895H11.9895H11.9895H11.9895H11.9895H11.9895H11.9894H11.9894H11.9894H11.9894H11.9894H11.9894H11.9894H11.9894H11.9893H11.9893H11.9893H11.9893H11.9893H11.9893H11.9893H11.9893H11.9892H11.9892H11.9892H11.9892H11.9892H11.9892H11.9892H11.9892H11.9891H11.9891H11.9891H11.9891H11.9891H11.9891H11.9891H11.9891H11.9891H11.989H11.989H11.989H11.989H11.989H11.989H11.989H11.989H11.9889H11.9889H11.9889H11.9889H11.9889H11.9889H11.9889H11.9888H11.9888H11.9888H11.9888H11.9888H11.9888H11.9888H11.9888H11.9887H11.9887H11.9887H11.9887H11.9887H11.9887H11.9887H11.9887H11.9886H11.9886H11.9886H11.9886H11.9886H11.9886H11.9886H11.9886H11.9885H11.9885H11.9885H11.9885H11.9885H11.9885H11.9885H11.9885H11.9885H11.9884H11.9884H11.9884H11.9884H11.9884H11.9884H11.9884H11.9884H11.9884H11.9884H11.9883H11.9883H11.9883H11.9883H11.9883H11.9883H11.9883H11.9883H11.9882H11.9882H11.9882H11.9882H11.9882H11.9882H11.9882H11.9882H11.9882H11.9882H11.9881H11.9881H11.9881H11.9881H11.9881H11.9881H11.9881H11.9881H11.9881H11.988H11.988H11.988H11.988H11.988H11.988H11.988H11.988H11.988H11.9879H11.9879H11.9879H11.9879H11.9879H11.9879H11.9879H11.9879H11.9878H11.9878H11.9878H11.9878H11.9878H11.9878H11.9878H11.9878H11.9878H11.9877H11.9877H11.9877H11.9877H11.9877H11.9877H11.9877H11.9876H11.9876H11.9876H11.9876H11.9876H11.9876H11.9876H11.9875H11.9875H11.9875H11.9875H11.9875H11.9875H11.9875H11.9875H11.9874H11.9874H11.9874H11.9874H11.9874H11.9874H11.9874H11.9874H11.9874H11.9873H11.9873H11.9873H11.9873H11.9873H11.9873H11.9873H11.9873H11.9872H11.9872H11.9872H11.9872H11.9872H11.9872H11.9872H11.9872H11.9871H11.9871H11.9871H11.9871H11.9871H11.9871H11.9871H11.9871H11.987H11.987H11.987H11.987H11.987H11.987H11.987H11.987H11.9869H11.9869H11.9869H11.9869H11.9869H11.9869H11.9869H11.9869H11.9868H11.9868H11.9868H11.9868H11.9868H11.9868H11.9868H11.9867H11.9867H11.9867H11.9867H11.9867H11.9867H11.9867H11.9867H11.9866H11.9866H11.9866H11.9866H11.9866H11.9866H11.9866H11.9866H11.9866H11.9865H11.9865H11.9865H11.9865H2.5C1.36789 0.450977 0.45 1.36886 0.45 2.50098V21.501C0.45 22.6331 1.36789 23.551 2.5 23.551ZM15.6888 5.45098H12.55V2.31219L15.6888 5.45098ZM12 6.55098H16.45V21.501C16.45 22.0254 16.0244 22.451 15.5 22.451H2.5C1.97561 22.451 1.55 22.0254 1.55 21.501V2.50098C1.55 1.97659 1.97561 1.55098 2.5 1.55098H11.45V6.00098C11.45 6.30456 11.6959 6.55098 12 6.55098ZM4.5 19.551H13.5C13.8041 19.551 14.05 19.3051 14.05 19.001C14.05 18.6974 13.8041 18.451 13.5 18.451H4.5C4.19585 18.451 3.95 18.6974 3.95 19.001C3.95 19.3051 4.19589 19.551 4.5 19.551ZM4.5 15.551H13.5C13.8041 15.551 14.05 15.3051 14.05 15.001C14.05 14.6974 13.8041 14.451 13.5 14.451H4.5C4.19585 14.451 3.95 14.6974 3.95 15.001C3.95 15.3051 4.19589 15.551 4.5 15.551ZM4.5 11.551H13.5C13.8041 11.551 14.05 11.3051 14.05 11.001C14.05 10.6974 13.8041 10.451 13.5 10.451H4.5C4.19585 10.451 3.95 10.6974 3.95 11.001C3.95 11.3051 4.19589 11.551 4.5 11.551Z" fill="#2F81C0" stroke="#2F81C0" stroke-width="0.1"/>
</svg>
