<svg xmlns="http://www.w3.org/2000/svg" viewBox="0 0 70 63"><g fill="#2f81c0"><path d="M63.025 50.461c-4.791 5.012-11.407 10.209-19.447 12.191-.587.145-1.144.257-1.682.348H70l-6.975-12.539Zm-18.85-7.884c-1.334 3.025-3.995 7.701-5.418 10.549-1.423 2.847-3.367 7.009-.248 8.347 4.977 2.134 17.073-8.816 17.793-23.032l.003-.059L34.956 0 14.803 36.321c4.406-2.549 13.095-6.838 21.843-6.956 14.239-.195 8.864 10.186 7.529 13.212ZM28.969 20.16a5.91 5.91 0 0 1 5.909-5.911 5.91 5.91 0 0 1 5.908 5.911 5.91 5.91 0 0 1-5.908 5.912 5.91 5.91 0 0 1-5.909-5.912Z"/><path d="M25.636 44.804c4.647-7.67 9.648-14.001 1.288-11.749C14.803 36.32 1.453 60.393.109 62.803L0 62.999h23.412c-7.189-3.289-.236-14.135 2.224-18.195"/></g></svg>