<svg viewBox="0 0 252 33" fill="none" xmlns="http://www.w3.org/2000/svg">
<path d="M0.784 32V0.759998H6.46V32H0.784ZM13.6664 21.616V17.26H37.9984V21.616H13.6664ZM45.2343 32V0.759998H57.2903C60.2236 0.759998 62.6143 1.69867 64.4623 3.576C66.3103 5.45333 67.2343 7.90267 67.2343 10.924C67.2343 13.9453 66.3103 16.424 64.4623 18.36C62.6143 20.2667 60.2236 21.22 57.2903 21.22H50.9103V32H45.2343ZM50.9103 16.292H56.2343C57.877 16.292 59.153 15.808 60.0623 14.84C61.001 13.872 61.4703 12.5667 61.4703 10.924C61.4703 9.31067 61.001 8.03466 60.0623 7.096C59.153 6.128 57.9063 5.644 56.3223 5.644H50.9103V16.292ZM71.9526 32V0.759998H77.5406V11.672L77.4086 13.564H77.4966C78.1126 12.3613 79.11 11.3053 80.4886 10.396C81.8966 9.48667 83.4953 9.032 85.2846 9.032C90.506 9.032 93.1166 11.8773 93.1166 17.568V32H87.5286V18.712C87.5286 17.216 87.2646 16.0867 86.7366 15.324C86.238 14.532 85.3286 14.136 84.0086 14.136C82.0726 14.136 80.5033 14.84 79.3006 16.248C78.1273 17.6267 77.5406 19.4013 77.5406 21.572V32H71.9526ZM101.534 29.228C99.158 26.9987 97.97 24.1827 97.97 20.78C97.97 17.3773 99.158 14.576 101.534 12.376C103.91 10.1467 106.814 9.032 110.246 9.032C113.707 9.032 116.626 10.1467 119.002 12.376C121.407 14.576 122.61 17.3773 122.61 20.78C122.61 24.1827 121.422 26.9987 119.046 29.228C116.67 31.428 113.751 32.528 110.29 32.528C106.829 32.528 103.91 31.428 101.534 29.228ZM103.646 20.78C103.646 22.8333 104.277 24.52 105.538 25.84C106.829 27.1307 108.413 27.776 110.29 27.776C112.167 27.776 113.751 27.1307 115.042 25.84C116.333 24.52 116.978 22.8333 116.978 20.78C116.978 18.756 116.318 17.084 114.998 15.764C113.707 14.444 112.138 13.784 110.29 13.784C108.442 13.784 106.873 14.444 105.582 15.764C104.291 17.084 103.646 18.756 103.646 20.78ZM128.546 23.772V14.312H125.642V9.868H128.678V3.444H134.134V9.868H139.238V14.312H134.134V23.068C134.134 24.6813 134.589 25.796 135.498 26.412C136.437 26.9987 137.463 27.292 138.578 27.292C138.959 27.292 139.297 27.2627 139.59 27.204V32.088C138.71 32.176 138.138 32.22 137.874 32.22C137.111 32.22 136.378 32.1613 135.674 32.044C134.97 31.956 134.163 31.736 133.254 31.384C132.345 31.032 131.553 30.5773 130.878 30.02C130.233 29.4333 129.675 28.612 129.206 27.556C128.766 26.4707 128.546 25.2093 128.546 23.772ZM146.285 29.228C143.909 26.9987 142.721 24.1827 142.721 20.78C142.721 17.3773 143.909 14.576 146.285 12.376C148.661 10.1467 151.565 9.032 154.997 9.032C158.458 9.032 161.377 10.1467 163.753 12.376C166.158 14.576 167.361 17.3773 167.361 20.78C167.361 24.1827 166.173 26.9987 163.797 29.228C161.421 31.428 158.502 32.528 155.041 32.528C151.58 32.528 148.661 31.428 146.285 29.228ZM148.397 20.78C148.397 22.8333 149.028 24.52 150.289 25.84C151.58 27.1307 153.164 27.776 155.041 27.776C156.918 27.776 158.502 27.1307 159.793 25.84C161.084 24.52 161.729 22.8333 161.729 20.78C161.729 18.756 161.069 17.084 159.749 15.764C158.458 14.444 156.889 13.784 155.041 13.784C153.193 13.784 151.624 14.444 150.333 15.764C149.042 17.084 148.397 18.756 148.397 20.78ZM172.412 32V9.56H177.78V12.2L177.692 13.784H177.78C178.367 12.5813 179.335 11.496 180.684 10.528C182.033 9.53067 183.72 9.032 185.744 9.032C190.965 9.032 193.576 11.8773 193.576 17.568V32H187.988V18.712C187.988 17.216 187.724 16.0867 187.196 15.324C186.697 14.532 185.788 14.136 184.468 14.136C182.532 14.136 180.963 14.84 179.76 16.248C178.587 17.656 178 19.4013 178 21.484V32H172.412ZM199.793 5.732V0.759998H205.381V5.732H199.793ZM199.793 32V9.56H205.381V32H199.793ZM210.428 20.78C210.428 17.4947 211.543 14.7227 213.772 12.464C216.031 10.176 218.979 9.032 222.616 9.032C224.229 9.032 225.813 9.31067 227.368 9.868C228.923 10.4253 230.213 11.2613 231.24 12.376L228.732 16.204C227.119 14.5907 225.183 13.784 222.924 13.784C220.9 13.784 219.257 14.4587 217.996 15.808C216.735 17.128 216.104 18.7707 216.104 20.736C216.104 22.7013 216.749 24.3733 218.04 25.752C219.331 27.1013 221.017 27.776 223.1 27.776C225.535 27.776 227.735 26.8227 229.7 24.916L231.856 28.876C230.8 29.9907 229.436 30.8853 227.764 31.56C226.121 32.2053 224.405 32.528 222.616 32.528C218.979 32.528 216.031 31.4133 213.772 29.184C211.543 26.9253 210.428 24.124 210.428 20.78ZM234.533 29.228L237.041 25.532C238.831 27.1747 240.957 27.996 243.421 27.996C244.419 27.996 245.181 27.8053 245.709 27.424C246.267 27.0133 246.545 26.456 246.545 25.752C246.545 25.1067 246.164 24.5493 245.401 24.08C244.639 23.6107 243.715 23.1853 242.629 22.804C241.544 22.4227 240.444 21.9827 239.329 21.484C238.244 20.956 237.32 20.208 236.557 19.24C235.795 18.272 235.413 17.1133 235.413 15.764C235.413 13.652 236.22 12.0093 237.833 10.836C239.476 9.63333 241.529 9.032 243.993 9.032C247.103 9.032 249.625 9.88267 251.561 11.584L249.493 15.5C248.848 14.9427 247.983 14.488 246.897 14.136C245.841 13.7547 244.815 13.564 243.817 13.564C241.735 13.564 240.693 14.2827 240.693 15.72C240.693 16.3653 241.075 16.9227 241.837 17.392C242.6 17.8613 243.524 18.2867 244.609 18.668C245.724 19.0493 246.824 19.4893 247.909 19.988C248.995 20.4573 249.919 21.176 250.681 22.144C251.444 23.112 251.825 24.2707 251.825 25.62C251.825 27.6147 251.048 29.272 249.493 30.592C247.939 31.8827 245.885 32.528 243.333 32.528C239.755 32.528 236.821 31.428 234.533 29.228Z" fill="#0C0D0E"/>
</svg>
