<svg viewBox="0 0 237 48" xmlns="http://www.w3.org/2000/svg">
    <path d="M75.714 34.953v-21.18h2.97v21.18h-2.97Zm8.193-7.26v-2.58h8.76v2.58h-8.76Zm13.94 7.26v-21.18h7.769c3.87 0 6.63 2.61 6.63 6.63s-2.76 6.72-6.63 6.72h-4.8v7.83h-2.97.001Zm2.969-10.41h4.32c2.52 0 4.11-1.59 4.11-4.14 0-2.52-1.59-4.05-4.08-4.05h-4.35v8.19Zm14.983 10.41v-21.18h2.91v7.86c0 .72-.12 1.26-.12 1.26h.06c.69-1.44 2.67-3.48 5.7-3.48 3.569 0 5.189 1.95 5.189 5.82v9.72h-2.909v-9.06c0-2.13-.42-3.81-2.85-3.81-2.94 0-5.07 2.4-5.07 5.67v7.2h-2.91Zm17.385-7.62c0-4.59 3.66-7.92 8.16-7.92 4.53 0 8.19 3.33 8.19 7.92 0 4.62-3.66 7.98-8.16 7.98-4.53 0-8.19-3.36-8.19-7.98Zm2.97 0c0 3.18 2.34 5.46 5.22 5.46 2.85 0 5.22-2.28 5.22-5.46 0-3.15-2.37-5.4-5.22-5.4-2.88 0-5.22 2.25-5.22 5.4Zm17.641 2.07v-7.11h-1.98v-2.37h2.04v-4.32h2.85v4.32h3.66v2.37h-3.66v6.78c0 3.03 2.13 3.42 3.24 3.42.21 0 .39 0 .69-.06v2.58c-.24.03-.57.09-1.02.09-1.95 0-5.82-.63-5.82-5.7Zm8.963-2.07c0-4.59 3.66-7.92 8.16-7.92 4.53 0 8.19 3.33 8.19 7.92 0 4.62-3.66 7.98-8.16 7.98-4.53 0-8.19-3.36-8.19-7.98Zm2.97 0c0 3.18 2.34 5.46 5.22 5.46 2.85 0 5.22-2.28 5.22-5.46 0-3.15-2.37-5.4-5.22-5.4-2.88 0-5.22 2.25-5.22 5.4Zm17.187 7.62v-15.18h2.819v2.07c0 .63-.09 1.14-.09 1.14h.06c.57-1.32 2.43-3.57 5.76-3.57 3.57 0 5.19 1.95 5.19 5.82v9.72h-2.91v-9.06c0-2.13-.42-3.81-2.85-3.81-2.97 0-5.07 2.46-5.07 5.58v7.29h-2.909Zm18.315-18.24v-2.94h3v2.94h-3Zm.06 18.24v-15.18h2.91v15.18h-2.91Zm6.693-7.59c0-4.5 3.36-7.95 8.129-7.95 2.01 0 4.26.69 5.7 2.22l-1.38 2.04c-1.02-1.02-2.61-1.74-4.2-1.74-3.059 0-5.279 2.31-5.279 5.4 0 3.09 2.22 5.46 5.369 5.46 1.68 0 3.51-.81 4.68-2.04l1.17 2.13c-1.38 1.47-3.69 2.43-6.06 2.43-4.799 0-8.129-3.39-8.129-7.95Zm16.347 5.73 1.38-1.98c1.14 1.11 2.88 1.77 4.47 1.77 1.53 0 2.579-.72 2.579-1.98 0-2.91-7.799-2.13-7.799-7.11 0-2.88 2.49-4.38 5.46-4.38 1.74 0 3.599.48 4.919 1.68l-1.17 2.1c-.9-.84-2.489-1.35-3.839-1.35-1.47 0-2.58.6-2.58 1.89 0 2.97 7.829 2.1 7.829 7.11 0 2.58-2.22 4.47-5.459 4.47-2.04 0-4.29-.69-5.79-2.22Z" style="fill:#00070a;fill-rule:nonzero"/>
    <path d="M75.714 34.953h-.4v.4h.4v-.4Zm0-21.18v-.4h-.4v.4h.4Zm2.97 0h.4v-.4h-.4v.4Zm0 21.18v.4h.4v-.4h-.4Zm-2.57 0v-21.18h-.8v21.18h.8Zm-.4-20.78h2.97v-.8h-2.97v.8Zm2.57-.4v21.18h.8v-21.18h-.8Zm.4 20.78h-2.97v.8h2.97v-.8Zm5.223-6.86h-.4v.4h.4v-.4Zm0-2.58v-.4h-.4v.4h.4Zm8.76 0h.4v-.4h-.4v.4Zm0 2.58v.4h.4v-.4h-.4Zm-8.36 0v-2.58h-.8v2.58h.8Zm-.4-2.18h8.76v-.8h-8.76v.8Zm8.36-.4v2.58h.8v-2.58h-.8Zm.4 2.18h-8.76v.8h8.76v-.8Zm5.18 7.66h-.4v.4h.4v-.4Zm0-21.18v-.4h-.4v.4h.4Zm2.969 13.35v-.4h-.4v.4h.4Zm0 7.83v.4h.4v-.4h-.4Zm0-10.41h-.4v.4h.4v-.4Zm0-8.19v-.4h-.4v.4h.4Zm-2.57 18.6v-21.18h-.8v21.18h.8Zm-.4-20.78h7.77v-.8h-7.77v.8Zm7.77 0c1.843 0 3.396.621 4.485 1.693 1.089 1.072 1.745 2.622 1.745 4.538h.8c0-2.105-.725-3.87-1.983-5.108-1.258-1.237-3.021-1.922-5.047-1.922v.8-.001Zm6.23 6.23c0 1.917-.656 3.491-1.747 4.586-1.092 1.094-2.643 1.734-4.483 1.734v.8c2.03 0 3.793-.71 5.049-1.97 1.257-1.26 1.981-3.045 1.981-5.15h-.8Zm-6.23 6.32h-4.8v.8h4.8v-.8Zm-5.2.4v7.83h.8v-7.83h-.8Zm.4 7.43h-2.97v.8h2.97v-.8Zm0-9.61h4.32v-.8h-4.32v.8Zm4.32 0c1.345 0 2.482-.426 3.283-1.231.801-.805 1.227-1.95 1.227-3.308h-.8c0 1.19-.37 2.116-.994 2.744-.623.627-1.541.995-2.716.995v.8Zm4.51-4.54c0-1.345-.427-2.468-1.226-3.254-.798-.786-1.927-1.195-3.254-1.195v.8c1.163 0 2.074.355 2.693.965.618.608.987 1.51.987 2.685h.8v-.001Zm-4.48-4.45h-4.35v.8h4.35v-.8Zm-4.75.4v8.19h.8v-8.19h-.8Zm15.383 18.6h-.4v.4h.4v-.4Zm0-21.18v-.4h-.4v.4h.4Zm2.91 0h.4v-.4h-.4v.4Zm-.12 9.12-.391-.086-.108.487h.499v-.401Zm.06 0v.4h.252l.109-.227-.361-.172v-.001Zm10.889 12.06v.4h.4v-.4h-.4Zm-2.909 0h-.4v.4h.4v-.4Zm-7.92 0v.4h.4v-.4h-.4Zm-2.51 0v-21.18h-.8v21.18h.8Zm-.4-20.78h2.91v-.8h-2.91v.8Zm2.51-.4v7.86h.8v-7.86h-.8Zm0 7.86c0 .393-.037.785-.11 1.171l-.001.003.391.087.39.086h.001v-.003l.001-.006.005-.023.015-.079c.071-.408.107-.822.108-1.236h-.8Zm.28 1.66h.06v-.8h-.06v.8Zm.421-.227c.64-1.337 2.499-3.252 5.339-3.252v-.8c-3.221 0-5.322 2.164-6.061 3.707l.722.345Zm5.339-3.252c1.713 0 2.882.466 3.632 1.322.76.867 1.157 2.208 1.157 4.098h.8c0-1.981-.413-3.55-1.355-4.625-.952-1.086-2.378-1.595-4.234-1.595v.8Zm4.789 5.42v9.72h.8v-9.72h-.8Zm.4 9.32h-2.909v.8h2.909v-.8Zm-2.509.4v-9.06h-.8v9.06h.8Zm0-9.06c0-1.072-.102-2.122-.571-2.909-.496-.834-1.357-1.301-2.679-1.301v.8c1.107 0 1.671.372 1.992.91.349.586.458 1.44.458 2.5h.8Zm-3.25-4.21c-3.203 0-5.47 2.623-5.47 6.07h.8c0-3.094 1.992-5.27 4.67-5.27v-.8Zm-5.47 6.07v7.2h.8v-7.2h-.8Zm.4 6.8h-2.91v.8h2.91v-.8Zm14.875-7.22c0-4.351 3.462-7.52 7.76-7.52v-.8c-4.702 0-8.56 3.49-8.56 8.32h.8Zm7.76-7.52c4.329 0 7.79 3.17 7.79 7.52h.8c0-4.83-3.859-8.32-8.59-8.32v.8Zm7.79 7.52c0 4.383-3.465 7.58-7.76 7.58v.8c4.705 0 8.56-3.524 8.56-8.38h-.8Zm-7.76 7.58c-4.325 0-7.79-3.198-7.79-7.58h-.8c0 4.857 3.856 8.38 8.59 8.38v-.8Zm-5.62-7.58c0 3.391 2.511 5.86 5.62 5.86v-.8c-2.65 0-4.82-2.093-4.82-5.06h-.8Zm5.62 5.86c3.078 0 5.62-2.467 5.62-5.86h-.8c0 2.966-2.198 5.06-4.82 5.06v.8Zm5.62-5.86c0-3.368-2.546-5.8-5.62-5.8v.8c2.626 0 4.82 2.067 4.82 5h.8Zm-5.62-5.8c-3.105 0-5.62 2.433-5.62 5.8h.8c0-2.934 2.166-5 4.82-5v-.8Zm12.421.76h.4v-.4h-.4v.4Zm-1.98 0h-.4v.4h.4v-.4Zm0-2.37v-.4h-.4v.4h.4Zm2.04 0v.4h.4v-.4h-.4Zm0-4.32v-.4h-.4v.4h.4Zm2.85 0h.4v-.4h-.4v.4Zm0 4.32h-.4v.4h.4v-.4Zm3.66 0h.4v-.4h-.4v.4Zm0 2.37v.4h.4v-.4h-.4Zm-3.66 0v-.4h-.4v.4h.4Zm3.93 10.14h.4v-.489l-.479.096.079.392v.001Zm0 2.58.05.396.35-.044v-.353h-.4v.001Zm-6.44-5.61v-7.11h-.8v7.11h.8Zm-.4-7.51h-1.98v.8h1.98v-.8Zm-1.58.4v-2.37h-.8v2.37h.8Zm-.4-1.97h2.04v-.8h-2.04v.8Zm2.44-.4v-4.32h-.8v4.32h.8Zm-.4-3.92h2.85v-.8h-2.85v.8Zm2.45-.4v4.32h.8v-4.32h-.8Zm.4 4.72h3.66v-.8h-3.66v.8Zm3.26-.4v2.37h.8v-2.37h-.8Zm.4 1.97h-3.66v.8h3.66v-.8Zm-4.06.4v6.78h.8v-6.78h-.8Zm0 6.78c0 1.62.577 2.608 1.372 3.172.77.546 1.678.647 2.268.647v-.8c-.52 0-1.232-.093-1.805-.5-.547-.388-1.035-1.11-1.035-2.52h-.8v.001Zm3.64 3.82c.218 0 .429 0 .768-.069l-.157-.784c-.26.052-.409.052-.611.052v.801Zm.29-.46v2.58h.8v-2.58h-.8Zm.35 2.182c-.259.033-.552.087-.97.087v.8c.482 0 .849-.065 1.07-.093l-.1-.794Zm-.97.087c-.945 0-2.307-.155-3.422-.884-1.086-.709-1.998-2-1.998-4.416h-.8c0 2.655 1.023 4.213 2.36 5.086 1.307.854 2.855 1.014 3.86 1.014v-.8Zm3.543-7.37c0-4.35 3.462-7.52 7.76-7.52v-.8c-4.702 0-8.56 3.491-8.56 8.32h.8Zm7.76-7.52c4.329 0 7.79 3.17 7.79 7.52h.8c0-4.83-3.859-8.32-8.59-8.32v.8Zm7.79 7.52c0 4.384-3.465 7.58-7.76 7.58v.8c4.705 0 8.56-3.523 8.56-8.38h-.8Zm-7.76 7.58c-4.326 0-7.79-3.197-7.79-7.58h-.8c0 4.858 3.856 8.38 8.59 8.38v-.8Zm-5.62-7.58c0 3.392 2.51 5.86 5.62 5.86v-.8c-2.65 0-4.82-2.092-4.82-5.06h-.8Zm5.62 5.86c3.078 0 5.62-2.466 5.62-5.86h-.8c0 2.967-2.199 5.06-4.82 5.06v.8Zm5.62-5.86c0-3.367-2.546-5.8-5.62-5.8v.8c2.626 0 4.82 2.068 4.82 5h.8Zm-5.62-5.8c-3.105 0-5.62 2.434-5.62 5.8h.8c0-2.933 2.165-5 4.82-5v-.8Zm11.967 13.42h-.4v.4h.4v-.4Zm0-15.18v-.4h-.4v.4h.4Zm2.819 0h.4v-.4h-.4v.4Zm-.09 3.21-.393-.069-.083.47h.476v-.401Zm.06 0v.4h.263l.105-.24-.368-.16Zm10.95 11.97v.4h.4v-.4h-.4Zm-2.91 0h-.4v.4h.4v-.4Zm-7.92 0v.4h.4v-.4h-.4Zm-2.509 0v-15.18h-.8v15.18h.8Zm-.4-14.78h2.819v-.8h-2.819v.8Zm2.419-.4v2.07h.8v-2.07h-.8Zm0 2.07a7.334 7.334 0 0 1-.071.993l-.01.06-.002.015v.003l.393.07.394.069.001-.001v-.002l.001-.006c.063-.397.094-.798.094-1.2h-.8v-.001Zm.31 1.54h.06v-.8h-.06v.8Zm.428-.24c.525-1.218 2.265-3.33 5.392-3.33v-.8c-3.532 0-5.512 2.39-6.127 3.812l.735.317v.001Zm5.392-3.33c1.714 0 2.883.467 3.633 1.323.76.867 1.157 2.208 1.157 4.098h.8c0-1.981-.413-3.55-1.355-4.625-.952-1.086-2.378-1.595-4.235-1.595v.8-.001Zm4.79 5.42v9.72h.8v-9.72h-.8Zm.4 9.32h-2.91v.8h2.91v-.8Zm-2.51.4v-9.06h-.8v9.06h.8Zm0-9.06c0-1.07-.101-2.12-.57-2.908-.497-.834-1.358-1.301-2.68-1.301v.8c1.108 0 1.672.372 1.993.91.348.586.457 1.44.457 2.5h.8v-.001Zm-3.25-4.21c-3.232 0-5.47 2.684-5.47 5.98h.8c0-2.943 1.963-5.18 4.67-5.18v-.8Zm-5.47 5.98v7.29h.8v-7.29h-.8Zm.4 6.89h-2.909v.8h2.909v-.8Zm15.406-17.84h-.4v.4h.4v-.4Zm0-2.94v-.4h-.4v.4h.4Zm3 0h.4v-.4h-.4v.4Zm0 2.94v.4h.4v-.4h-.4Zm-2.94 18.24h-.4v.4h.4v-.4Zm0-15.18v-.4h-.4v.4h.4Zm2.91 0h.4v-.4h-.4v.4Zm0 15.18v.4h.4v-.4h-.4Zm-2.57-18.24v-2.94h-.8v2.94h.8Zm-.4-2.54h3v-.8h-3v.8Zm2.6-.4v2.94h.8v-2.94h-.8Zm.4 2.54h-3v.8h3v-.8Zm-2.54 18.64v-15.18h-.8v15.18h.8Zm-.4-14.78h2.91v-.8h-2.91v.8Zm2.51-.4v15.18h.8v-15.18h-.8Zm.4 14.78h-2.91v.8h2.91v-.8Zm17.612-12.92.332.225.179-.265-.219-.234-.292.275v-.001Zm-1.38 2.04-.283.283.343.343.272-.401-.332-.224v-.001Zm.57 7.08.351-.192-.264-.48-.377.397.29.275Zm1.17 2.13.292.274.199-.212-.14-.254-.351.192Zm-13.789-5.52c0-4.276 3.178-7.55 7.729-7.55v-.8c-4.987 0-8.529 3.627-8.529 8.35h.8Zm7.729-7.55c1.935 0 4.066.668 5.409 2.095l.583-.549c-1.537-1.632-3.907-2.345-5.992-2.345v.8-.001Zm5.369 1.597-1.38 2.04.663.448 1.38-2.04-.663-.448Zm-.766 1.98c-1.091-1.09-2.781-1.856-4.483-1.856v.8c1.479 0 2.969.674 3.917 1.622l.566-.565v-.001Zm-4.483-1.856c-3.291 0-5.679 2.5-5.679 5.8h.8c0-2.88 2.051-5 4.879-5v-.8Zm-5.679 5.8c0 3.298 2.387 5.86 5.769 5.86v-.8c-2.917 0-4.969-2.18-4.969-5.06h-.8Zm5.769 5.86c1.794 0 3.728-.859 4.97-2.165l-.58-.551c-1.097 1.153-2.823 1.915-4.39 1.915v.801Zm4.33-2.248 1.17 2.13.701-.385-1.17-2.13-.701.385Zm1.229 1.663c-1.296 1.38-3.495 2.304-5.769 2.304v.8c2.467 0 4.887-.996 6.352-2.556l-.583-.548Zm-5.769 2.304c-4.582 0-7.729-3.215-7.729-7.55h-.8c0 4.785 3.513 8.35 8.529 8.35v-.8Zm8.218-1.82-.328-.229-.19.273.232.236.286-.28Zm1.38-1.98.279-.286-.338-.33-.269.387.328.23v-.001Zm9.629-10.02.35.195.154-.277-.235-.213-.269.296v-.001Zm-1.17 2.1-.272.293.373.349.249-.447-.35-.195Zm-9.511 10.129 1.38-1.98-.656-.457-1.38 1.98.656.457Zm.773-1.922c1.22 1.188 3.062 1.883 4.749 1.883v-.8c-1.494 0-3.131-.624-4.191-1.656l-.558.573Zm4.749 1.883c.821 0 1.559-.192 2.102-.596.556-.414.877-1.028.877-1.784h-.8c0 .505-.203.88-.554 1.142-.365.27-.917.438-1.625.438v.8Zm2.979-2.38c0-.95-.653-1.551-1.421-1.986-.761-.431-1.788-.782-2.728-1.163-.97-.394-1.886-.832-2.561-1.452-.657-.605-1.089-1.387-1.089-2.508h-.8c0 1.368.543 2.356 1.348 3.096.788.725 1.821 1.208 2.801 1.605 1.01.41 1.934.721 2.635 1.118.694.393 1.015.786 1.015 1.29h.8Zm-7.799-7.11c0-1.308.559-2.286 1.454-2.948.907-.671 2.182-1.031 3.606-1.031v-.8c-1.547 0-3.002.39-4.082 1.188-1.092.808-1.778 2.02-1.778 3.591h.8Zm5.06-3.98c1.677 0 3.428.465 4.65 1.577l.538-.592c-1.417-1.289-3.386-1.784-5.188-1.784v.8-.001Zm4.57 1.086-1.17 2.1.699.39 1.17-2.1-.699-.39Zm-.548 2.002c-.992-.926-2.689-1.457-4.112-1.457v.8c1.276 0 2.759.488 3.567 1.242l.545-.585Zm-4.112-1.457c-.781 0-1.515.158-2.065.53-.571.384-.915.98-.915 1.76h.8c0-.511.21-.86.562-1.098.372-.25.928-.392 1.618-.392v-.8Zm-2.98 2.29c0 .963.652 1.57 1.426 2.007.766.432 1.796.778 2.74 1.154.975.388 1.894.82 2.57 1.437.66.601 1.093 1.382 1.093 2.511h.8c0-1.375-.545-2.364-1.353-3.102-.792-.722-1.83-1.197-2.813-1.59-1.014-.403-1.941-.71-2.643-1.107-.694-.391-1.02-.789-1.02-1.31h-.8Zm7.829 7.11c0 2.291-1.967 4.07-5.059 4.07v.8c3.386 0 5.859-2.003 5.859-4.87h-.8Zm-5.059 4.07c-1.964 0-4.099-.667-5.505-2.1l-.571.56c1.595 1.625 3.959 2.34 6.076 2.34v-.8Z" style="fill-rule:nonzero"/>
    <path d="M48.62 38.447c-3.696 3.819-8.8 7.778-15.002 9.288-.454.11-.883.196-1.298.265H54l-5.38-9.553ZM34.078 32.44c-1.029 2.304-3.082 5.867-4.18 8.037-1.097 2.17-2.597 5.34-.191 6.36 3.84 1.625 13.17-6.717 13.726-17.549l.003-.045L26.966 0 11.419 27.673c3.4-1.942 10.102-5.21 16.85-5.3 10.986-.148 6.839 7.761 5.81 10.066l-.001.001Zm-11.73-17.08c0-2.487 2.04-4.504 4.558-4.504 2.517 0 4.558 2.017 4.558 4.504 0 2.487-2.04 4.504-4.558 4.504s-4.558-2.016-4.558-4.504Z" style="fill:#2f81c0;fill-rule:nonzero"/>
    <path d="M19.777 34.137c3.584-5.844 7.442-10.667.993-8.951C11.42 27.672 1.12 46.014.084 47.85L0 48h18.061c-5.546-2.506-.183-10.77 1.715-13.863" style="fill:#2f81c0;fill-rule:nonzero"/>
</svg>
