<svg xmlns="http://www.w3.org/2000/svg" viewBox="0 0 16 16"><path fill="#2f81c0" d="M14.406 12.134 16 15H9.576c.123-.021.251-.046.385-.08 1.837-.453 3.35-1.64 4.445-2.786Zm-4.309-1.802c.305-.692 1.534-3.065-1.721-3.02-1.999.027-3.985 1.007-4.992 1.59L7.99.6l4.88 8.773-.001.014c-.165 3.249-2.929 5.752-4.067 5.264-.713-.306-.269-1.257.057-1.908.325-.651.933-1.72 1.238-2.411ZM6.621 5.208c0 .741.61 1.351 1.351 1.351s1.351-.61 1.351-1.351-.61-1.351-1.351-1.351-1.351.61-1.351 1.351Zm-.761 5.633c-.563.928-2.152 3.407-.509 4.159H0l.025-.045c.307-.551 3.359-6.053 6.129-6.8 1.911-.514.768.933-.294 2.686Z"/></svg>